<svg width="18" height="24" viewBox="0 0 18 24" fill="none" xmlns="http://www.w3.org/2000/svg">
<path d="M1.62292 12.2368C2.91732 15.2117 5.82406 17.3236 9.29851 17.3236C13.9084 17.3236 17.6327 13.5994 17.6327 8.98946C17.6327 4.37956 13.9084 0.655313 9.29851 0.655313C4.68861 0.655313 0.964359 4.37956 0.964359 8.98946C0.964359 10.1476 1.19145 11.2149 1.62292 12.2368ZM4.6659 8.98946C4.6659 6.44607 6.75512 4.35685 9.29851 4.35685C11.8419 4.35685 13.9311 6.44607 13.9311 8.98946C13.9311 11.5328 11.8419 13.6221 9.29851 13.6221C6.75512 13.6221 4.6659 11.5328 4.6659 8.98946ZM1.03249 17.3236C1.75917 21.1387 5.1882 24 9.18496 24C13.1136 24 16.6335 21.2068 17.3601 17.3236H13.5223C12.7957 19.1176 11.1606 20.2985 9.18496 20.2985C7.30013 20.2985 5.55155 19.0949 4.87029 17.3236H1.03249ZM6.75512 8.98946C6.75512 10.352 7.91327 11.5101 9.29851 11.5101C10.6837 11.5101 11.8419 10.352 11.8419 8.98946C11.8419 7.60422 10.6837 6.44607 9.29851 6.44607C7.91327 6.44607 6.75512 7.60422 6.75512 8.98946Z" fill="url(#paint0_linear_1_3)"/>
<defs>
<linearGradient id="paint0_linear_1_3" x1="1.00434" y1="0.416145" x2="21.2727" y2="2.7203" gradientUnits="userSpaceOnUse">
<stop stop-color="#BC3CD8"/>
<stop offset="1" stop-color="#C54B8C"/>
</linearGradient>
</defs>
</svg>
