<svg width="92" height="129" viewBox="0 0 92 129" fill="none" xmlns="http://www.w3.org/2000/svg">
<path d="M3.63489 63.9981C10.7793 80.4368 26.8229 92.107 46 92.107C71.4441 92.107 92 71.5272 92 46.0535C92 20.5798 71.4441 0 46 0C20.5559 0 0 20.5798 0 46.0535C0 52.4533 1.25341 58.3512 3.63489 63.9981ZM20.4305 46.0535C20.4305 31.999 31.9619 20.4543 46 20.4543C60.0382 20.4543 71.5695 31.999 71.5695 46.0535C71.5695 60.108 60.0382 71.6527 46 71.6527C31.9619 71.6527 20.4305 60.108 20.4305 46.0535ZM0.376044 92.107C4.38694 113.189 23.3133 129 45.3733 129C67.0572 129 86.485 113.565 90.4959 92.107H69.3133C65.3024 102.02 56.2779 108.546 45.3733 108.546C34.97 108.546 25.3188 101.895 21.5586 92.107H0.376044ZM31.9619 46.0535C31.9619 53.5827 38.3542 59.9825 46 59.9825C53.6458 59.9825 60.0382 53.5827 60.0382 46.0535C60.0382 38.3988 53.6458 31.999 46 31.999C38.3542 31.999 31.9619 38.3988 31.9619 46.0535Z" fill="white"/>
</svg>
